<?xml version="1.0" encoding="utf-8"?>
<!-- Generator: Adobe Illustrator 24.0.1, SVG Export Plug-In . SVG Version: 6.00 Build 0)  -->
<svg version="1.1" id="Layer_1" xmlns="http://www.w3.org/2000/svg" xmlns:xlink="http://www.w3.org/1999/xlink" x="0px" y="0px"
	 viewBox="0 0 825.4 138.1" style="enable-background:new 0 0 825.4 138.1;" xml:space="preserve">
<style type="text/css">
	.st0{fill:#1E1E1C;}
	.st1{fill:#010101;}
</style>
<g id="Layer_2_1_">
	<g id="Layer_1-2">
		<path class="st0" d="M494.9,62.9h-2.4l-2.7-7.1h-10.5l-2.7,7.1h-2.5l9.5-23.3h1.8L494.9,62.9z M489.1,54.1l-4.5-11.9L480,54.1
			H489.1z"/>
		<path class="st0" d="M500.1,39.6v13.9c0,2.6,0,4.3,1.1,5.8c1.4,1.6,3.4,2.4,5.4,2.2c1,0,2.1-0.1,3-0.5c1.7-0.6,2.9-2.1,3.2-3.9
			c0.2-1,0.3-2,0.2-3V39.6h2.2v10.6c0,6.5,0,8.7-2,10.9c-1.8,1.7-4.2,2.6-6.7,2.5c-3.9,0-7.2-1.7-8.3-5.1c-0.5-1.7-0.5-3-0.5-8.1
			V39.6H500.1z"/>
		<path class="st0" d="M540,62.9h-1.9V59c-0.6,1.6-1.7,2.9-3.2,3.7c-1.2,0.6-2.6,0.9-3.9,0.9c-6.5,0-9.9-5.3-9.9-12.1
			c0-7.2,3.7-12.5,10.5-12.5c3.9-0.2,7.4,2.2,8.6,5.9l-2.1,1.1c-0.6-3.1-3.3-5.3-6.4-5.2c-4.8,0-8.3,3.9-8.3,10.5
			c0,6,2.7,10.3,7.7,10.3c5.6,0,7.1-5.2,7-8.8h-8.6v-2h10.5L540,62.9z"/>
		<path class="st0" d="M568.5,62.9h-2.2l0.2-19.8l-7.7,19.8h-1.6l-7.8-19.8l0.3,19.8h-2.1V39.6h2.6l8,19.7l7.6-19.7h2.8V62.9z"/>
		<path class="st0" d="M592,62.9h-16.1V39.6h15.3v2.1h-13.1v8.3H590v2h-11.8v8.9H592V62.9z"/>
		<path class="st0" d="M616.1,62.9h-2.2l-13.8-20.2v20.2H598V39.6h2.2l13.9,20l-0.2-20h2.2V62.9z"/>
		<path class="st0" d="M629.5,62.9h-2.2V41.5H620v-1.9h16.9v2h-7.4L629.5,62.9z"/>
		<path class="st0" d="M656.9,62.9h-16.1V39.6h15.3v2.1H643v8.3h11.8v2H643v8.9h13.9V62.9z"/>
		<path class="st0" d="M662.8,62.9V39.6h6.2c2.1-0.1,4.3,0.1,6.3,0.7c3.4,1.3,5.9,5.5,5.9,10.9c0.2,3.8-1.4,7.5-4.2,10.1
			c-2.1,1.7-4.2,1.7-8.2,1.7L662.8,62.9z M665.1,60.9h3.6c2.1,0.2,4.2-0.1,6.2-0.7c2.2-1,4.2-4.3,4.2-9c0-4-1.6-7.9-4.4-9.1
			c-1.3-0.6-2.6-0.6-5.4-0.6h-4.1L665.1,60.9z"/>
		<path class="st0" d="M713.8,62.9H711l-7.4-10.4h-5.5v10.4h-2.2V39.5h6.7c4.1,0,5.1,0,6.6,0.5c2.6,0.9,4.2,3.5,4.1,6.2
			c0.1,1.7-0.6,3.3-1.8,4.5c-1.5,1.2-3.3,1.8-5.2,1.8L713.8,62.9z M698.1,50.6h5.5c1.3,0,2.6,0,3.9-0.2c2-0.3,3.5-2.2,3.4-4.2
			c0.2-2.2-1.3-4.1-3.4-4.5c-1.3-0.2-2.6-0.2-3.9-0.2h-5.5V50.6z"/>
		<path class="st0" d="M735.5,62.9h-16.1V39.6h15.3v2.1h-13.1v8.3h11.9v2h-11.8v8.9h13.9L735.5,62.9z"/>
		<path class="st0" d="M758.5,62.9h-2.4l-2.7-7.1H743l-2.7,7.1h-2.5l9.5-23.3h1.9L758.5,62.9z M752.7,54.1l-4.5-11.9l-4.6,11.9
			H752.7z"/>
		<path class="st0" d="M777.4,62.9h-15.2V39.5h2.2v21.4h12.9V62.9z"/>
		<path class="st0" d="M783,62.9h-2.2V39.6h2.2V62.9z"/>
		<path class="st0" d="M796.5,62.9h-2.3V41.5h-7.4v-1.9h16.9v2h-7.4L796.5,62.9z"/>
		<path class="st0" d="M816.2,62.9h-2.2v-9.7l-8.7-13.7h2.6l7.2,11.6l7.5-11.6h2.7l-9.2,13.7L816.2,62.9z"/>
		<path class="st0" d="M497.4,102.7h-2.2l0.2-19.9l-7.7,19.9h-1.5l-7.8-19.9l0.3,19.9h-2.1V79.3h2.6l7.9,19.8l7.6-19.8h2.8
			L497.4,102.7z"/>
		<path class="st0" d="M507,79.3v13.9c0,2.6,0,4.3,1.1,5.8c1.4,1.6,3.4,2.4,5.4,2.2c1,0,2.1-0.1,3-0.5c1.7-0.6,2.9-2.1,3.2-3.9
			c0.2-1,0.3-2,0.2-3V79.3h2.2v10.6c0,6.5,0,8.7-2,10.9c-1.8,1.7-4.2,2.6-6.7,2.5c-3.9,0-7.2-1.7-8.3-5.1c-0.5-1.7-0.5-3-0.5-8.1
			V79.3H507z"/>
		<path class="st0" d="M542.1,85c-0.2-0.7-0.5-1.5-1-2.1c-1.2-1.6-3.1-2.5-5-2.4c-2.5,0-5.5,1.1-5.5,4.2c0,2.8,2.6,3.7,3.9,4.1
			c0.7,0.2,4,1.1,4.7,1.3c1.3,0.4,5.4,1.7,5.4,6.2c0,3.3-2.8,7.1-8.8,7.1c-1.9,0.1-3.8-0.4-5.5-1.4c-1.7-1.2-2.9-3-3.2-5.1l2.2-1.2
			c0,0.9,0.2,1.9,0.6,2.7c1.2,2.1,3.5,3.2,5.9,3c4.5,0,6.5-2.5,6.5-5c0.1-1.2-0.5-2.4-1.4-3.1c-1.1-0.9-2.4-1.2-5.5-2
			c-3.3-0.9-7.1-2.1-7.1-6.4c0-4.6,4.1-6.1,7.7-6.1c6,0,7.5,3.9,8.1,5.1L542.1,85z"/>
		<path class="st0" d="M551.9,102.7h-2.2V79.3h2.2V102.7z"/>
		<path class="st0" d="M576.5,97.6c-1.3,3.6-4.9,5.9-8.7,5.6c-2.8,0.1-5.6-1-7.5-3.1c-1.9-2.6-2.9-5.8-2.7-9c0-5,1.8-12.5,10-12.5
			c6.3,0,8,3.8,9.1,6.1l-2.2,1.2c-0.3-1.6-1.2-3-2.5-4.1c-1.2-0.8-2.7-1.3-4.2-1.2c-2.3-0.1-4.5,0.9-5.8,2.8c-1.4,2.2-2.2,4.8-2,7.4
			c0,1.6,0.2,5.4,2,7.7c1.5,1.9,3.8,3,6.2,2.8c1.3,0.1,2.6-0.3,3.7-1c1.3-1,2.3-2.4,2.7-4L576.5,97.6z"/>
		<path class="st0" d="M607.1,102.7h-16V79.3h15.3v2h-13v8.3h11.8v2.1h-11.8v8.9h13.9L607.1,102.7z"/>
		<path class="st0" d="M631.2,102.7H629l-13.8-20.2v20.2h-2.2V79.3h2.2l14,20l-0.2-20h2.2V102.7z"/>
		<path class="st0" d="M651.8,85c-0.2-0.7-0.5-1.5-1-2.1c-1.2-1.6-3.1-2.4-5.1-2.3c-2.5,0-5.5,1.1-5.5,4.2c0,2.8,2.6,3.7,3.9,4.1
			c0.7,0.2,4,1.1,4.7,1.3c1.3,0.4,5.4,1.7,5.4,6.2c0,3.3-2.8,7.1-8.8,7.1c-1.9,0.1-3.8-0.4-5.5-1.4c-1.7-1.2-2.9-3-3.2-5.1l2.2-1.2
			c-0.2,3.1,2.2,5.7,5.3,5.8c0.4,0,0.8,0,1.2-0.1c4.5,0,6.5-2.5,6.5-5c0.1-1.2-0.5-2.4-1.4-3.1c-1.1-0.9-2.4-1.2-5.5-2
			c-3.3-0.9-7.1-2.1-7.1-6.4c0-4.6,4.1-6.1,7.7-6.1c6,0,7.5,3.9,8.1,5.1L651.8,85z"/>
		<path class="st0" d="M675.4,102.7h-16.1V79.3h15.3v2h-13.1v8.3h11.8v2.1h-11.8v8.9h13.9V102.7z"/>
		<path class="st0" d="M702.2,102.7h-2.1l0.2-19.9l-7.6,19.9h-1.5l-7.8-19.9l0.3,19.9h-2.2V79.3h2.6l7.9,19.8l7.5-19.8h2.8
			L702.2,102.7z"/>
		<path class="st0" d="M719.5,79.3c2-0.2,4.1,0.3,5.8,1.6c1.2,1.1,1.8,2.6,1.8,4.2c0.1,2.4-1.6,4.6-4,5c-0.1,0-0.1,0-0.2,0
			c0.1,0,0.2,0,0.3,0c2.8,0.5,4.9,3,4.7,5.9c0.2,3.3-2.2,6.1-5.5,6.5c-1.9,0.2-3.8,0.3-5.6,0.2h-6.9V79.3H719.5z M712,89.2h6.6
			c1.7,0.2,3.4-0.2,4.9-1.1c0.9-0.8,1.4-1.9,1.3-3c0-1.1-0.5-2.2-1.4-2.9c-1.3-0.8-2.9-1.1-4.4-0.9h-7L712,89.2z M712,100.6h5.9
			c1.6,0,2.3,0,2.8,0c3-0.1,4.8-1.6,4.8-4.5c0-2.2-1.5-4.2-3.7-4.7c-1.1-0.3-2.3-0.4-3.5-0.3H712L712,100.6z"/>
		<path class="st0" d="M749.1,102.7h-15.2V79.2h2.2v21.4h12.9V102.7z"/>
		<path class="st0" d="M768.6,102.7h-16.1V79.3h15.3v2h-13.1v8.3h11.8v2.1h-11.8v8.9h13.9L768.6,102.7z"/>
		
			<rect x="-15.6" y="42.2" transform="matrix(0.7423 -0.67 0.67 0.7423 -16.6575 43.1167)" class="st0" width="126.7" height="2.1"/>
		
			<rect x="35.7" y="15.2" transform="matrix(0.9047 -0.4261 0.4261 0.9047 -28.3952 22.7901)" class="st0" width="2.1" height="119.4"/>
		
			<rect x="19.8" y="96.7" transform="matrix(0.9467 -0.3221 0.3221 0.9467 -27.344 30.3066)" class="st0" width="116.2" height="2.1"/>
		
			<rect x="96.1" y="-17" transform="matrix(0.4432 -0.8964 0.8964 0.4432 16.4604 110.4914)" class="st0" width="2.1" height="118"/>
		
			<rect x="31.2" y="73.7" transform="matrix(0.2707 -0.9627 0.9627 0.2707 -1.4613 147.6151)" class="st0" width="131" height="2.1"/>
		<path class="st1" d="M234.3,103.6h-6.7L220.2,84h-29.1l-7.4,19.6h-6.9l26.5-64.9h5.1L234.3,103.6z M218.3,79.1l-12.5-33.1
			l-12.7,33.1H218.3z"/>
		<path class="st1" d="M296.1,103.6h-7.7l-20.5-28.8h-15.3v28.8h-6.2v-65h18.2c11.3,0.1,14.2,0.1,18.2,1.5
			c10.7,3.8,11.4,14,11.4,17.2c0,6.8-3,10.6-4.9,12.5c-4.7,4.4-10.9,4.8-14.3,5.1L296.1,103.6z M252.6,69.5h15.3
			c3.7,0.1,7.3-0.1,11-0.6c6.9-1.4,9.4-6.6,9.4-11.9c0-6.3-3.1-11.1-9.5-12.4c-1.8-0.4-2.7-0.4-10.9-0.5h-15.3V69.5z"/>
		<path class="st1" d="M367.6,103.6h-6l0.5-55.1l-21.2,55.1h-4.2L315,48.5l0.7,55.1h-6V38.7h7.3l22,55.1l21-55.1h7.6L367.6,103.6z"
			/>
		<path class="st1" d="M427.5,103.6h-44.7V38.7h42.4v5.7h-36.2v23.1h32.8v5.7h-32.8v24.7h38.5V103.6z"/>
	</g>
</g>
</svg>
