<svg xmlns="http://www.w3.org/2000/svg" viewBox="0 0 427.45 177.18"><defs><style>.cls-1{fill:#1e1e1c;}.cls-2{fill:#010101;}</style></defs><g id="Layer_2" data-name="Layer 2"><g id="Layer_1-2" data-name="Layer 1"><path class="cls-1" d="M190.77,148.55h-1.72l-1.9-5h-7.43l-1.88,5h-1.76L182.85,132h1.31Zm-4.09-6.27-3.2-8.46-3.24,8.46Z"/><path class="cls-1" d="M194.46,132v9.87c0,1.81,0,3.08.8,4.12a4.62,4.62,0,0,0,3.86,1.57,6,6,0,0,0,2.16-.35,3.48,3.48,0,0,0,2.28-2.75,11,11,0,0,0,.16-2.16V132h1.58v7.55c0,4.6,0,6.18-1.41,7.71a6.34,6.34,0,0,1-4.73,1.76c-2.79,0-5.07-1.2-5.87-3.6-.38-1.2-.38-2.11-.38-5.73V132Z"/><path class="cls-1" d="M222.78,148.55h-1.36v-2.77a4.64,4.64,0,0,1-2.26,2.59,6,6,0,0,1-2.77.61c-4.58,0-7-3.76-7-8.58,0-5.12,2.63-8.86,7.43-8.86a6.1,6.1,0,0,1,6.13,4.2l-1.48.81a4.48,4.48,0,0,0-4.54-3.67c-3.4,0-5.87,2.75-5.87,7.43,0,4.23,1.88,7.28,5.48,7.28,4,0,5-3.67,4.93-6.27h-6.11v-1.44h7.47Z"/><path class="cls-1" d="M243,148.55h-1.53l.12-14.07-5.43,14.07H235l-5.52-14.07.18,14.07h-1.52V132H230L235.64,146,241,132H243Z"/><path class="cls-1" d="M259.66,148.55H248.24V132h10.83v1.46h-9.26v5.9h8.39v1.45h-8.39v6.33h9.85Z"/><path class="cls-1" d="M276.73,148.55h-1.56l-9.75-14.33v14.33h-1.53V132h1.53l9.89,14.2-.14-14.2h1.56Z"/><path class="cls-1" d="M286.24,148.55h-1.57v-15.2h-5.22V132h12v1.39h-5.25Z"/><path class="cls-1" d="M305.63,148.55H294.21V132h10.84v1.46h-9.26v5.9h8.39v1.45h-8.39v6.33h9.84Z"/><path class="cls-1" d="M309.86,148.55V132h4.42a13.35,13.35,0,0,1,4.49.49c2.38.94,4.16,3.88,4.16,7.76a9,9,0,0,1-3,7.15c-1.5,1.17-3,1.19-5.8,1.19Zm1.6-1.41H314a12,12,0,0,0,4.38-.49c1.59-.73,3-3.05,3-6.37,0-2.84-1.13-5.57-3.15-6.46-.92-.4-1.81-.4-3.86-.4h-2.89Z"/><path class="cls-1" d="M346,148.55h-2l-5.24-7.35h-3.9v7.35h-1.58V131.94H338c2.89,0,3.62,0,4.65.37a4.47,4.47,0,0,1,2.92,4.4,4.32,4.32,0,0,1-1.25,3.2,5.75,5.75,0,0,1-3.67,1.29Zm-11.12-8.71h3.9a16.06,16.06,0,0,0,2.8-.17,2.86,2.86,0,0,0,2.39-3,2.93,2.93,0,0,0-2.42-3.17,13.86,13.86,0,0,0-2.77-.12h-3.9Z"/><path class="cls-1" d="M361.41,148.55H350V132h10.84v1.46h-9.26v5.9H360v1.45h-8.39v6.33h9.85Z"/><path class="cls-1" d="M377.67,148.55H376l-1.91-5h-7.42l-1.88,5H363L369.75,132h1.32Zm-4.09-6.27-3.19-8.46-3.25,8.46Z"/><path class="cls-1" d="M391.07,148.55H380.31V131.94h1.59V147.1h9.17Z"/><path class="cls-1" d="M395.09,148.55h-1.57V132h1.57Z"/><path class="cls-1" d="M404.61,148.55H403v-15.2h-5.22V132h12v1.39h-5.24Z"/><path class="cls-1" d="M418.62,148.55h-1.53v-6.86L410.91,132h1.84l5.12,8.25L423.2,132h1.91l-6.49,9.73Z"/><path class="cls-1" d="M192.53,176.76H191l.12-14.08-5.43,14.08h-1.08l-5.52-14.08.18,14.08h-1.52V160.17h1.85l5.62,14.07,5.36-14.07h1.95Z"/><path class="cls-1" d="M199.35,160.17V170c0,1.81,0,3.08.79,4.11a4.64,4.64,0,0,0,3.86,1.58,5.8,5.8,0,0,0,2.16-.36,3.45,3.45,0,0,0,2.28-2.75,10.93,10.93,0,0,0,.17-2.16V160.17h1.57v7.54c0,4.61,0,6.18-1.41,7.71a6.31,6.31,0,0,1-4.72,1.76c-2.8,0-5.08-1.2-5.88-3.59-.38-1.2-.38-2.12-.38-5.74v-7.68Z"/><path class="cls-1" d="M224.28,164.19a5.07,5.07,0,0,0-.7-1.49A4.27,4.27,0,0,0,220,161c-1.78,0-3.9.75-3.9,3,0,2,1.86,2.61,2.8,2.89.47.14,2.84.75,3.36.94.89.28,3.83,1.24,3.83,4.39,0,2.33-1.95,5-6.21,5a7,7,0,0,1-3.9-1,5.21,5.21,0,0,1-2.25-3.59l1.57-.83a4.54,4.54,0,0,0,.4,1.93,4.38,4.38,0,0,0,4.18,2.14c3.2,0,4.61-1.76,4.61-3.53a2.71,2.71,0,0,0-1-2.23c-.75-.63-1.72-.87-3.9-1.43-2.35-.61-5-1.48-5-4.56,0-3.27,2.89-4.33,5.48-4.33,4.25,0,5.33,2.73,5.71,3.65Z"/><path class="cls-1" d="M231.19,176.76h-1.57V160.17h1.57Z"/><path class="cls-1" d="M248.63,173.14a6.13,6.13,0,0,1-6.16,4,6.75,6.75,0,0,1-5.31-2.21,10,10,0,0,1-1.93-6.39c0-3.53,1.27-8.84,7.1-8.84,4.47,0,5.69,2.71,6.42,4.31l-1.58.82a5,5,0,0,0-1.76-2.89,4.92,4.92,0,0,0-3-.85,4.58,4.58,0,0,0-4.09,2,8.73,8.73,0,0,0-1.43,5.27c0,1.12.14,3.83,1.39,5.47a5.15,5.15,0,0,0,4.39,2,4.35,4.35,0,0,0,2.61-.7,5.13,5.13,0,0,0,1.9-2.82Z"/><path class="cls-1" d="M270.37,176.76H259V160.17h10.83v1.45h-9.25v5.9h8.39V169h-8.39v6.32h9.84Z"/><path class="cls-1" d="M287.44,176.76h-1.56l-9.75-14.34v14.34H274.6V160.17h1.53l9.9,14.19-.15-14.19h1.56Z"/><path class="cls-1" d="M302,164.19a5.07,5.07,0,0,0-.7-1.49,4.29,4.29,0,0,0-3.6-1.66c-1.78,0-3.9.75-3.9,3,0,2,1.86,2.61,2.8,2.89.47.14,2.84.75,3.36.94.89.28,3.83,1.24,3.83,4.39,0,2.33-1.95,5-6.21,5a7,7,0,0,1-3.9-1,5.21,5.21,0,0,1-2.25-3.59l1.57-.83a3.93,3.93,0,0,0,4.58,4.07c3.2,0,4.61-1.76,4.61-3.53a2.71,2.71,0,0,0-1-2.23c-.75-.63-1.72-.87-3.9-1.43-2.35-.61-5-1.48-5-4.56,0-3.27,2.89-4.33,5.48-4.33,4.25,0,5.33,2.73,5.71,3.65Z"/><path class="cls-1" d="M318.79,176.76H307.37V160.17H318.2v1.45h-9.26v5.9h8.39V169h-8.39v6.32h9.85Z"/><path class="cls-1" d="M337.8,176.76h-1.52l.11-14.08L331,176.76h-1.09l-5.52-14.08.19,14.08H323V160.17h1.86l5.62,14.07,5.35-14.07h1.95Z"/><path class="cls-1" d="M350,160.17a5.86,5.86,0,0,1,4.09,1.1,4,4,0,0,1,1.29,3,3.38,3.38,0,0,1-2.82,3.51.36.36,0,0,1-.14,0,.48.48,0,0,0,.19,0,4,4,0,0,1,3.33,4.18,4.34,4.34,0,0,1-3.87,4.58,27.18,27.18,0,0,1-4,.12h-4.92V160.17Zm-5.29,7h4.65a5.29,5.29,0,0,0,3.46-.75,2.75,2.75,0,0,0,.94-2.16,2.49,2.49,0,0,0-1-2.07,5.11,5.11,0,0,0-3.15-.63h-4.93Zm0,8.14h4.21c1.1,0,1.62,0,2,0,2.11-.09,3.43-1.15,3.43-3.17a3.36,3.36,0,0,0-2.61-3.34,9.93,9.93,0,0,0-2.47-.23h-4.58Z"/><path class="cls-1" d="M371,176.76H360.23V160.14h1.59V175.3H371Z"/><path class="cls-1" d="M384.86,176.76H373.44V160.17h10.84v1.45H375v5.9h8.39V169H375v6.32h9.84Z"/><rect class="cls-1" x="-15.61" y="42.16" width="126.68" height="2.09" transform="translate(-16.65 43.11) rotate(-42.07)"/><rect class="cls-1" x="35.7" y="15.14" width="2.09" height="119.39" transform="translate(-28.39 22.8) rotate(-25.22)"/><rect class="cls-1" x="19.81" y="96.73" width="116.2" height="2.09" transform="translate(-27.34 30.3) rotate(-18.79)"/><rect class="cls-1" x="96.13" y="-17" width="2.09" height="117.97" transform="translate(16.47 110.48) rotate(-63.69)"/><rect class="cls-1" x="31.51" y="73.79" width="131.33" height="2.09" transform="matrix(0.27, -0.96, 0.96, 0.27, -1.38, 147.84)"/><path class="cls-2" d="M234.33,93.6h-6.72L220.16,74H191.1L183.74,93.6h-6.9l26.49-64.93h5.15Zm-16-24.55L205.82,35.93l-12.7,33.12Z"/><path class="cls-2" d="M296.13,93.6H288.4L267.89,64.81H252.62V93.6h-6.16v-65h18.21c11.31.09,14.17.09,18.21,1.47,10.67,3.77,11.41,14,11.41,17.2,0,6.8-3,10.57-4.88,12.51-4.69,4.41-10.85,4.78-14.34,5.05ZM252.62,59.48h15.27a62.69,62.69,0,0,0,10.95-.64c6.89-1.38,9.38-6.63,9.38-11.87,0-6.35-3.13-11.13-9.48-12.42-1.84-.36-2.66-.36-10.85-.46H252.62Z"/><path class="cls-2" d="M367.58,93.6h-6l.45-55.09L340.82,93.6h-4.23L315,38.51l.74,55.09h-6V28.67H317l22,55.09,21-55.09h7.63Z"/><path class="cls-2" d="M427.45,93.6h-44.7V28.67h42.4v5.7H388.91V57.46h32.84v5.7H388.91V87.9h38.54Z"/></g></g></svg>