<?xml version="1.0" standalone="no"?>
<!DOCTYPE svg PUBLIC "-//W3C//DTD SVG 20010904//EN"
 "http://www.w3.org/TR/2001/REC-SVG-20010904/DTD/svg10.dtd">
<svg version="1.0" xmlns="http://www.w3.org/2000/svg"
 width="604.000000pt" height="604.000000pt" viewBox="0 0 604.000000 604.000000"
 preserveAspectRatio="xMidYMid meet">
<metadata>
Created by potrace 1.14, written by Peter Selinger 2001-2017
</metadata>
<g transform="translate(0.000000,604.000000) scale(0.100000,-0.100000)"
fill="#000000" stroke="none">
<path d="M3740 5609 c-13 -11 -65 -58 -115 -103 -49 -46 -166 -152 -260 -236
-93 -84 -193 -174 -220 -199 -28 -25 -91 -82 -140 -126 -50 -44 -95 -84 -101
-90 -6 -5 -51 -46 -100 -91 -121 -110 -161 -144 -167 -144 -3 0 -193 92 -423
205 -229 113 -418 205 -420 205 -5 0 -34 -58 -34 -69 0 -5 179 -98 398 -206
218 -108 399 -199 402 -202 3 -2 -13 -21 -36 -41 -146 -132 -210 -190 -234
-212 -15 -14 -62 -56 -105 -95 -43 -38 -83 -75 -89 -80 -6 -6 -76 -69 -156
-140 -80 -71 -154 -139 -165 -150 -11 -11 -59 -54 -105 -95 -47 -41 -87 -77
-90 -80 -3 -3 -66 -60 -140 -127 -74 -67 -157 -142 -185 -167 -50 -45 -65 -54
-65 -37 0 5 -30 71 -66 147 -36 77 -97 204 -134 284 -38 80 -94 199 -125 265
-32 66 -70 147 -85 180 -15 33 -49 105 -75 160 -65 137 -135 286 -175 373 -19
39 -38 72 -42 72 -15 0 -68 -30 -68 -39 0 -4 48 -109 106 -232 58 -123 116
-247 129 -274 13 -28 125 -266 250 -530 l226 -480 -43 -39 c-24 -21 -83 -75
-133 -120 -49 -44 -110 -99 -135 -121 -24 -22 -49 -45 -55 -51 -5 -6 -55 -51
-110 -99 -55 -49 -102 -91 -105 -95 -3 -3 -45 -41 -95 -85 -49 -44 -102 -91
-116 -105 -15 -14 -46 -42 -70 -64 -24 -21 -85 -76 -134 -121 -50 -46 -101
-92 -113 -102 l-23 -18 29 -34 29 -35 38 35 c21 19 45 41 54 49 9 9 54 49 101
90 46 41 91 82 100 91 8 9 60 56 115 105 55 49 102 91 105 94 3 3 48 43 100
90 52 47 113 101 135 122 22 20 52 47 66 60 56 51 216 195 256 232 l43 38 49
-103 c27 -57 100 -214 164 -349 63 -135 136 -290 162 -345 26 -55 62 -131 80
-170 33 -71 81 -173 175 -370 29 -60 65 -137 80 -170 15 -33 51 -109 79 -169
28 -60 50 -110 49 -111 -2 -1 -84 -29 -183 -63 -99 -33 -333 -113 -520 -177
-187 -64 -354 -121 -372 -126 -31 -9 -31 -11 -21 -42 6 -18 14 -36 18 -41 5
-4 55 8 112 27 56 19 281 96 498 170 217 74 415 142 440 151 50 18 80 20 80 7
0 -8 25 -63 161 -350 33 -68 59 -125 59 -126 0 -2 36 -78 80 -170 44 -92 80
-171 80 -176 0 -13 15 -11 55 5 l35 15 -46 98 c-26 54 -56 121 -69 148 -13 28
-52 111 -87 185 -36 74 -77 162 -92 195 -15 33 -44 96 -65 140 -25 51 -35 81
-27 84 6 2 189 65 406 138 490 167 858 292 973 332 59 20 87 26 87 17 0 -6
-12 -52 -26 -101 -14 -50 -28 -97 -30 -105 -1 -8 -40 -143 -84 -300 -283 -991
-339 -1194 -333 -1200 5 -4 23 -12 40 -18 l33 -11 19 67 c25 83 311 1091 316
1112 11 46 173 601 176 604 2 2 67 24 144 50 77 27 331 113 565 193 234 80
530 180 659 224 129 43 236 80 238 83 2 2 -1 22 -8 44 l-12 40 -146 -50 c-157
-54 -866 -295 -1200 -409 -113 -38 -206 -67 -208 -65 -4 3 52 205 137 496 32
106 272 954 275 970 6 25 77 265 80 268 2 3 383 -184 1255 -616 l485 -240 19
39 c11 21 18 40 15 42 -2 2 -94 48 -204 102 -1225 602 -1546 765 -1541 782 3
10 39 140 81 288 42 149 80 284 85 300 5 17 16 53 25 81 9 28 17 59 20 70 2
10 15 57 28 104 14 47 48 168 77 270 29 101 54 190 57 196 4 12 -73 43 -80 33
-4 -4 -45 -147 -83 -284 -14 -49 -29 -103 -35 -120 -5 -16 -41 -142 -80 -280
-102 -362 -178 -628 -182 -631 -2 -2 -131 60 -288 137 -156 78 -483 240 -727
360 -315 156 -441 223 -436 231 5 7 20 22 34 34 14 12 35 31 48 42 31 27 290
261 406 367 6 6 79 71 161 145 83 74 155 139 161 145 6 5 51 46 100 90 49 44
109 98 133 121 l44 41 -29 31 -29 32 -25 -21z m-840 -1222 c425 -209 1255
-619 1258 -622 5 -4 -27 -122 -150 -550 -55 -192 -117 -411 -137 -485 -21 -74
-80 -282 -131 -462 l-93 -326 -61 -21 c-89 -29 -828 -281 -986 -335 -74 -26
-142 -49 -150 -51 -8 -2 -88 -29 -176 -59 -89 -31 -166 -56 -172 -56 -6 0 -22
24 -36 53 -63 137 -88 190 -139 297 -30 63 -70 149 -90 190 -19 41 -53 113
-75 160 -116 245 -154 328 -332 704 l-192 409 31 27 c34 30 188 169 205 185 6
6 81 74 166 150 85 77 160 144 166 150 6 5 48 44 94 85 46 41 91 82 100 90 9
8 56 51 105 95 49 44 95 85 101 90 6 6 50 46 99 90 102 93 105 96 215 195 46
41 95 85 108 97 14 13 27 21 31 19 3 -2 112 -55 241 -119z"/>
</g>
</svg>
